<?xml version="1.0" encoding="iso-8859-1"?>
<!-- Uploaded to: SVG Repo, www.svgrepo.com, Generator: SVG Repo Mixer Tools -->
<svg height="800px" width="800px" version="1.1" id="Layer_1" xmlns="http://www.w3.org/2000/svg" xmlns:xlink="http://www.w3.org/1999/xlink" 
	 viewBox="0 0 448.011 448.011" xml:space="preserve">
<g transform="translate(0 -1020.36)" shape-rendering="auto" image-rendering="auto" color-rendering="auto" color-interpolation="sRGB">
	<g>
		<path style="fill:#29A3EC;" d="M415.644,1039.723l13.093,12.999l-123.062,123.063c-7.501,7.498-11.687,17.738-11.688,28.342
			v32.127l-106,105.873c-3.598-0.943-7.32-1.52-11.187-1.584c-0.302-0.004-0.544-0.16-0.81-0.16
			c-26.415,0-47.969,21.521-47.969,47.936c0,4.186,0.732,8.188,1.748,12.063l-49.687,49.596c-3.193,3.191-8.029,3.191-11.219,0
			L18.3,1399.537c-3.193-3.191-3.193-8.154,0-11.342l213.782-213.781h32.25c10.606,0,20.721-4.186,28.218-11.686l123.094-123.063
			L415.644,1039.723z"/>
		<path style="fill:#EE746C;" d="M175.988,1356.38c2.147,0,4.227,0.24,6.25,0.623c0.629,0.16,1.222,0.367,1.844,0.545
			c13.779,3.574,23.906,15.896,23.906,30.846c0,17.768-14.232,32.031-32,32.031c-13.326,0-24.662-8.031-29.5-19.531
			c-0.063-0.309-0.143-0.613-0.242-0.912c-0.708-1.832-1.3-3.725-1.687-5.654c-0.363-1.947-0.544-3.955-0.544-5.938
			c0-2.219,0.181-4.379,0.623-6.469c2.969-14.629,15.829-25.531,31.376-25.531L175.988,1356.38z"/>
		<path style="fill:#FB9761;" d="M179.705,1361.869c1.609,0,3.175,0.176,4.693,0.48c0.484,0.16,0.919,0.305,1.385,0.416
			c10.352,2.686,17.96,11.943,17.96,23.172c0,13.35-10.692,24.064-24.041,24.064c-10.011,0-18.528-6.029-22.163-14.674
			c-0.047-0.227-0.108-0.451-0.181-0.672c-0.484-1.377-0.98-2.801-1.27-4.252c-0.302-1.455-0.423-2.969-0.423-4.463
			c0-1.668,0.122-3.289,0.484-4.863c2.231-10.99,11.892-19.182,23.572-19.182L179.705,1361.869z"/>
		<path style="fill:#5A3392;" d="M190.599,1348.382l-15.906,1.719c0,0,0.729,6.805,1.094,15.25
			c0.365,8.447,0.162,18.738-0.969,23.783c-0.97,4.326-4.706,12.619-8.188,19.188c-3.482,6.564-6.625,11.654-6.625,11.654
			l13.625,8.406c0,0,3.41-5.498,7.156-12.563c3.746-7.066,7.919-15.438,9.656-23.188c1.898-8.465,1.701-19.004,1.312-28
			C191.367,1355.636,190.599,1348.382,190.599,1348.382L190.599,1348.382z"/>
		<path style="fill:#3CDEF6;" d="M417.144,1052.984l-123.094,123.031c-7.497,7.5-17.613,11.688-28.219,11.688h-32.25
			L19.801,1401.484c-3.193,3.189-3.193,8.15,0,11.344l50.562,50.438c3.19,3.193,8.026,3.193,11.219,0l49.688-49.594
			c-1.016-3.875-1.75-7.879-1.75-12.063c0-26.416,21.554-47.938,47.969-47.938c0.266,0,0.51,0.16,0.813,0.16
			c3.867,0,7.589,0.656,11.188,1.6l48.094-48.031l-7.25-7.094l21.031-21.469l7.469,7.313l36.656-36.594v-32.125
			c0.001-10.605,4.186-20.846,11.688-28.344l123.062-123.063l-13.094-13L417.144,1052.984z"/>
		<path style="fill:#5A3392;" d="M415.519,1020.36c-2.093,0.033-4.09,0.886-5.563,2.374l-128.719,128.75
			c-4.499,4.506-10.539,6.969-16.906,6.969h-35.562c-2.122,0-4.156,0.844-5.656,2.344L6.988,1376.955
			c-9.306,9.305-9.306,24.695,0,34l50.531,50.438c9.304,9.305,24.602,9.305,33.906,0l45.406-45.406
			c-3.289-4.688-5.713-9.928-7.156-15.469l-49.594,49.5c-3.193,3.193-8.029,3.193-11.219,0l-50.563-50.438
			c-3.193-3.193-3.193-8.154,0-11.342l213.781-213.783h32.25c10.606,0,20.721-4.184,28.219-11.686l123.094-123.032l13.094,13.001
			L305.676,1175.8c-7.501,7.496-11.687,17.74-11.688,28.344v32.125l-42.625,42.594l11.406,11.188l44.781-44.781
			c1.519-1.502,2.375-3.551,2.375-5.688v-35.438c0-6.367,2.589-12.496,7.094-17l128.625-128.719
			c3.132-3.117,3.145-8.182,0.029-11.314c-0.01-0.01-0.019-0.02-0.029-0.029l-24.344-24.344c-1.526-1.542-3.612-2.399-5.781-2.374
			L415.519,1020.36z M230.113,1300.078l-42,41.938c5.564,1.436,10.824,3.859,15.531,7.154l37.875-37.873L230.113,1300.078z
			 M166.613,1341.359c-0.232,0-0.456,0.16-0.688,0.16C166.154,1341.464,166.383,1341.41,166.613,1341.359z M222.457,1376.328
			c0.065,0.303,0.128,0.607,0.187,0.912C222.564,1376.935,222.532,1376.632,222.457,1376.328z M129.176,1378.173
			c-0.048,0.24-0.144,0.447-0.187,0.688C129.049,1378.63,129.112,1378.402,129.176,1378.173z M224.019,1388.047
			c0,0.117,0,0.234,0,0.352c-0.009,0.219-0.02,0.438-0.032,0.656c0.003-0.225,0.064-0.432,0.064-0.656
			C224.051,1388.238,224.019,1388.173,224.019,1388.047z M223.176,1397.078c-0.131,0.691-0.277,1.379-0.438,2.063
			C222.898,1398.453,223.047,1397.781,223.176,1397.078z M185.895,1435.328c-0.135,0.055-0.271,0.107-0.406,0.16
			C185.632,1435.488,185.759,1435.492,185.895,1435.328z"/>
	</g>
	<path style="fill:#5A3392;" d="M142.064,1422.259c-18.678-18.678-18.678-49.203,0-67.881s49.204-18.678,67.882,0
		s18.678,49.205,0,67.881C191.268,1440.937,160.742,1440.937,142.064,1422.259z M153.378,1410.945
		c12.564,12.564,32.691,12.564,45.255,0c12.564-12.563,12.564-32.691,0-45.254s-32.691-12.563-45.255,0
		S140.814,1398.382,153.378,1410.945z"/>
</g>
</svg>