<?xml version="1.0" encoding="utf-8"?>
<!-- Uploaded to: SVG Repo, www.svgrepo.com, Generator: SVG Repo Mixer Tools -->
<svg width="800px" height="800px" viewBox="0 0 1024 1024" class="icon"  version="1.1" xmlns="http://www.w3.org/2000/svg"><path d="M901.318847 854.803909c0 25.351441-8.216041 50.862727-25.159626 72.281977-39.961288 50.479098-113.298242 59.046798-163.777341 19.08551-29.123786-23.017702-44.309076-57.128657-44.309076-91.527332 0-25.351441 8.216041-50.830758 25.159627-72.250008 23.017702-29.123786 57.128657-44.309076 91.527333-44.309076 25.351441 0 50.862727 8.216041 72.281977 25.159627 29.123786 23.017702 44.277107 57.128657 44.277106 91.559302z" fill="#5FCEFF" /><path d="M744.734538 105.993319c137.11517 108.470919 147.601012 323.718398 23.337392 480.750273-43.637726 55.146577-98.049015 95.811183-156.264618 120.61915l-2.365709-5.530642-418.794293-331.263089c11.125222-61.284631 37.947239-122.409416 80.817708-176.62889 124.231651-157.063844 336.122381-196.449689 473.26952-87.946802z" fill="#FF4893" /><path d="M609.441603 701.8321l2.365709 5.530642c-89.033749 37.979208-186.922918 38.970248-268.475914-1.822234a277.682995 277.682995 0 0 1-48.528988-30.818145 279.645893 279.645893 0 0 1-42.742593-41.975337c-57.863944-70.587618-78.77169-166.558646-61.412507-262.178015l418.794293 331.263089z" fill="#FFB578" /><path d="M343.331398 705.540508l-1.086947 2.205863-130.913178 165.503668-90.440386-71.578658 126.917049-160.452562 4.251881-8.471793c12.53186 15.281196 26.790047 29.34757 42.742593 41.975337 15.313165 12.116262 31.585402 22.378321 48.528988 30.818145z" fill="#FFB578" /><path d="M475.491368 758.36933c-50.805182 0-98.637245-11.042103-142.169474-32.81621a300.735862 300.735862 0 0 1-52.403634-33.282957 302.657201 302.657201 0 0 1-46.160082-45.338478c-60.888215-74.270451-84.989666-176.462652-66.127939-280.365196 12.122656-66.786501 41.614086-131.280822 85.280585-186.510518 78.122719-98.768318 194.058406-157.731997 310.128363-157.731997 72.627242 0 139.91246 22.861053 194.579501 66.115151 71.46357 56.534033 113.422922 141.277537 118.154338 238.629627 4.677069 96.21719-27.694771 193.367875-91.153295 273.55899-44.507284 56.249508-101.575199 100.27406-165.040118 127.319859-47.317361 20.185246-96.130873 30.421729-145.088245 30.421729z m88.544622-691.285517c-102.505498 0-205.317898 52.61463-275.019974 140.73726-39.130093 49.491255-65.533315 107.150598-76.351635 166.744067-16.515201 90.961481 4.152777 179.892929 56.700272 243.994031a257.967694 257.967694 0 0 0 39.325104 38.618588 256.033567 256.033567 0 0 0 44.615978 28.330954c37.29507 18.653929 78.391258 28.103974 122.182436 28.103975 42.886454 0 85.795286-9.028054 127.537248-26.834804 56.610758-24.127027 107.610952-63.519266 147.495514-113.924835 56.735438-71.696944 85.696182-158.214729 81.546602-243.6136-4.092036-84.251182-40.038013-157.303612-101.217146-205.701526-46.684375-36.930623-104.369292-56.45411-166.814399-56.45411z" fill="#4F46A3" /><path d="M211.331273 895.62836a22.362336 22.362336 0 0 1-13.887347-4.83052l-90.440386-71.578659a22.378321 22.378321 0 0 1-3.663651-31.43195l126.91705-160.452561a22.378321 22.378321 0 1 1 35.101995 27.768299l-113.036097 142.904761 55.344785 43.803965 117.025831-147.946277a22.378321 22.378321 0 1 1 35.101995 27.768299l-130.913178 165.503669a22.365533 22.365533 0 0 1-17.550997 8.490974zM609.428816 724.210421a22.272823 22.272823 0 0 1-13.868165-4.827323l-418.794293-331.263089a22.378321 22.378321 0 1 1 27.768299-35.101995l418.794293 331.263089a22.378321 22.378321 0 0 1-13.900134 39.929318zM784.628691 993.712541c-31.563023 0-61.348569-10.370753-86.137354-29.996541-33.5483-26.511917-52.796853-66.271799-52.796854-109.071936 0-31.550236 10.370753-61.335781 29.990148-86.130961 26.515113-33.554694 66.271799-52.806444 109.075133-52.806444 31.569417 0 61.364553 10.370753 86.16293 29.98695 33.535512 26.505523 52.774475 66.274996 52.774474 109.113497 0 31.56622-10.367556 61.361356-29.98695 86.162929-26.534295 33.519528-66.290981 52.742506-109.081527 52.742506z m0.131073-233.24924c-29.024682 0-55.987362 13.049758-73.969942 35.805314-13.308707 16.8253-20.338697 37.004152-20.338697 58.375449 0 29.024682 13.049758 55.987362 35.802117 73.969941 16.818907 13.311904 36.994562 20.341894 58.375449 20.341894 29.027879 0 55.993756-13.033774 73.985926-35.760557 13.29592-16.809316 20.325909-37.004152 20.325909-58.391433 0-29.063045-13.040167-56.035316-35.776541-74.001911-16.822104-13.308707-37.013743-20.338697-58.404221-20.338697z" fill="#4F46A3" /><path d="M779.855715 931.360145a78.420031 78.420031 0 0 1-48.810315-16.965964 22.378321 22.378321 0 0 1 27.761905-35.101995c14.718541 11.639924 36.156973 9.149536 47.790503-5.54343A22.378321 22.378321 0 0 1 841.690213 901.526646c-15.520964 19.606606-38.570635 29.833499-61.834498 29.833499z" fill="#4F46A3" /></svg>