<?xml version="1.0" encoding="iso-8859-1"?>
<!-- Uploaded to: SVG Repo, www.svgrepo.com, Generator: SVG Repo Mixer Tools -->
<!DOCTYPE svg PUBLIC "-//W3C//DTD SVG 1.1//EN" "http://www.w3.org/Graphics/SVG/1.1/DTD/svg11.dtd">
<svg fill="#000000" height="800px" width="800px" version="1.1" id="Capa_1" xmlns="http://www.w3.org/2000/svg" xmlns:xlink="http://www.w3.org/1999/xlink" 
	 viewBox="0 0 488.913 488.913" xml:space="preserve">
<path d="M478.413,28.502h-96.471V12.194c0-5.799-4.701-10.5-10.5-10.5h-253.97c-5.799,0-10.5,4.701-10.5,10.5v16.309H10.5
	c-5.799,0-10.5,4.701-10.5,10.5v114.39c0,16.369,6.374,31.758,17.949,43.333c11.575,11.575,26.964,17.949,43.332,17.949h48.591
	c7.563,36.215,31.141,64.837,59.379,86.89c20.368,15.906,29.761,42.566,29.761,68.314c0,29.151-13.397,55.906-36.745,73.395
	c-10.33,7.716-19.523,16.831-27.323,27.093c-2.415,3.176-2.82,7.445-1.048,11.02c1.773,3.574,5.418,5.835,9.407,5.835H345.61
	c3.989,0,7.634-2.261,9.406-5.835c1.773-3.574,1.367-7.843-1.047-11.019c-7.949-10.458-17.349-19.726-27.94-27.546
	c-22.855-17.515-35.962-44.038-35.962-72.782c0-27.423,8.504-52.634,28.288-67.617c28.99-21.956,53.013-51.005,60.686-87.746h48.591
	c33.79,0,61.281-27.491,61.281-61.283V39.002C488.913,33.204,484.212,28.502,478.413,28.502z M360.942,22.694v41.65h-232.97v-41.65
	H360.942z M61.281,193.674c-10.759,0-20.875-4.19-28.483-11.798C25.19,174.268,21,164.152,21,153.392V49.502h85.972V186.53
	c0,2.396,0.063,4.777,0.185,7.144H61.281z M313.342,459.553c0.049,0.037,0.098,0.074,0.147,0.111
	c2.805,2.068,5.511,4.255,8.112,6.555H167.309c2.423-2.143,4.937-4.189,7.537-6.13c28.704-21.501,45.167-54.381,45.167-90.211
	c0-17.955-4.254-35.285-12.178-50.823c11.665,3.227,23.944,4.961,36.622,4.961c12.338,0,24.298-1.644,35.683-4.706
	c-7.31,14.947-11.072,31.996-11.072,50.728C269.067,405.406,285.204,438.033,313.342,459.553z M244.456,303.015
	c-64.23,0-116.485-52.255-116.485-116.485V85.344h232.97V186.53C360.942,250.76,308.687,303.015,244.456,303.015z M467.913,153.391
	c0,22.212-18.07,40.283-40.281,40.283h-45.874c0.122-2.366,0.184-4.748,0.184-7.144V49.502h85.971V153.391z"/>
</svg>